#!OML:ASF X:\für Bonn\!DataBase\2005_08_11_Bastian_Final\c3d\Bastian.ASF
:FULLY-SPECIFIED
:DEGREES
46
root 24.1958 16.8842 -3.22812 1065 -76.7703 -1.01001
lowerback 33.1652 -0.875887 5.37042
upperback 18.4174 -1.80292 4.98867
thorax 3.33275 -1.71638 2.82263
lowerneck -5.9363 -6.27884 -5.78288
upperneck 6.44681 -8.12275 2.98257
head 3.55828 -4.05709 1.57837
rclavicle 7.15625e-015 -2.06736e-014
rhumerus 10.5579 10.9885 -70.2714
rradius 20.2374
rwrist -3.96166
rhand -20.7257 -3.27126
rfingers 7.12502
rthumb 5.63914 -33.1762
lclavicle 7.15625e-015 -2.06736e-014
lhumerus -5.93818 -21.8973 -273.657
lradius 52.0648
lwrist -333.973
lhand -14.3976 -12.5588
lfingers 7.12502
lthumb 11.7457 17.0918
rfemur -18.314 3.35919 18.6442
rtibia 30.6459
rfoot -5.21399 -8.4497
rtoes -8.31667
lfemur 2.20402 2.06298 -20.6172
ltibia 50.3027
lfoot -11.2492 -17.1158
ltoes -9.7473
47
root 24.1235 16.8588 -3.24165 1065.53 -76.5717 -1.66356
lowerback 34.2024 -0.955068 5.8691
upperback 18.6145 -1.76678 5.13341
thorax 3.20265 -1.70258 2.73431
lowerneck -6.12902 -6.36815 -5.66644
upperneck 5.92086 -8.22463 2.8896
head 3.40469 -4.10404 1.52133
rclavicle 1.43125e-014 -1.11319e-014
rhumerus 11.566 10.7814 -69.8592
rradius 19.9744
rwrist -4.06858
rhand -20.8048 -3.34899
rfingers 7.12502
rthumb 5.56284 -33.256
lclavicle 1.43125e-014 -1.11319e-014
lhumerus -5.8126 -21.9257 -273.618
lradius 52.1776
lwrist -334.316
lhand -14.6161 -12.9706
lfingers 7.12502
lthumb 11.535 16.692
rfemur -18.2331 2.54935 18.8768
rtibia 30.9316
rfoot -4.19729 -7.91312
rtoes -9.86521
lfemur 0.829936 2.19797 -20.2946
ltibia 53.1934
lfoot -10.1535 -16.8537
ltoes -12.1494
48
root 24.0562 16.8329 -3.25595 1065.86 -76.3531 -2.14953
lowerback 35.3429 -1.05134 6.35375
upperback 18.7912 -1.73622 5.26998
thorax 3.02887 -1.69478 2.65233
lowerneck -6.30689 -6.43481 -5.59514
upperneck 5.36436 -8.29859 2.85121
head 3.24277 -4.13702 1.49321
rclavicle 3.18055e-015 4.45278e-014
rhumerus 12.5449 10.5893 -69.4077
rradius 19.7337
rwrist -4.14049
rhand -20.9572 -3.43163
rfingers 7.12502
rthumb 5.41566 -33.3424
lclavicle 3.18055e-015 4.45278e-014
lhumerus -5.73196 -21.955 -273.541
lradius 52.2659
lwrist -334.645
lhand -14.8598 -13.1667
lfingers 7.12502
lthumb 11.2999 16.5089
rfemur -18.1108 1.70003 19.0586
rtibia 31.1615
rfoot -3.2175 -7.65872
rtoes -11.4399
lfemur -0.593731 2.33106 -20.0236
ltibia 56.0912
lfoot -8.81216 -16.5181
ltoes -14.6655
49
root 23.993 16.8133 -3.27057 1066.33 -76.1382 -2.74787
lowerback 36.4872 -1.17019 6.87666
upperback 18.9695 -1.71277 5.39649
thorax 2.87346 -1.68814 2.54464
lowerneck -6.49421 -6.49597 -5.47966
upperneck 4.78883 -8.37161 2.83471
head 3.07568 -4.16844 1.46496
rclavicle -3.33958e-014 -3.33958e-014
rhumerus 13.5638 10.3245 -68.9944
rradius 19.4753
rwrist -4.21353
rhand -21.0606 -3.42885
rfingers 7.12502
rthumb 5.31579 -33.3422
lclavicle -3.33958e-014 -3.33958e-014
lhumerus -5.64307 -21.9758 -273.515
lradius 52.3258
lwrist -334.949
lhand -15.0614 -13.3937
lfingers 7.12502
lthumb 11.1055 16.2924
rfemur -18.0006 0.776702 19.2576
rtibia 31.3597
rfoot -2.27042 -7.4641
rtoes -12.7254
lfemur -2.0948 2.50553 -19.7145
ltibia 58.9121
lfoot -7.3782 -16.096
ltoes -17.7091
50
root 23.9347 16.8008 -3.28626 1066.8 -75.9403 -3.28992
lowerback 37.6276 -1.29037 7.39872
upperback 19.1201 -1.6734 5.52165
thorax 2.70478 -1.67318 2.4347
lowerneck -6.74271 -6.56392 -5.3719
upperneck 4.30648 -8.45196 2.79996
head 2.95253 -4.205 1.42886
rclavicle -4.77083e-015 2.22639e-014
rhumerus 14.5452 10.1881 -68.4965
rradius 19.2733
rwrist -4.40686
rhand -21.1805 -3.45116
rfingers 7.12502
rthumb 5.20004 -33.3674
lclavicle -4.77083e-015 2.22639e-014
lhumerus -5.62919 -22.0216 -273.471
lradius 52.4486
lwrist -335.209
lhand -15.1618 -13.1173
lfingers 7.12502
lthumb 11.0087 16.574
rfemur -17.9433 -0.100902 19.4413
rtibia 31.527
rfoot -1.42724 -7.28584
rtoes -13.6378
lfemur -3.70895 2.76644 -19.4075
ltibia 61.5849
lfoot -5.95388 -15.61
ltoes -21.0083
51
root 23.8787 16.7882 -3.30127 1067.06 -75.7756 -3.61241
lowerback 38.8057 -1.39655 7.87359
upperback 19.2731 -1.61948 5.63572
thorax 2.54259 -1.65606 2.33659
lowerneck -6.99783 -6.62028 -5.26368
upperneck 3.80138 -8.51843 2.76684
head 2.82266 -4.23542 1.39438
rclavicle -3.18055e-014 -1.43125e-014
rhumerus 15.538 9.87609 -68.0514
rradius 19.0741
rwrist -4.36004
rhand -21.2703 -3.48763
rfingers 7.12502
rthumb 5.11332 -33.4059
lclavicle -3.18055e-014 -1.43125e-014
lhumerus -5.57565 -22.0099 -273.409
lradius 52.5086
lwrist -335.508
lhand -15.1033 -12.7446
lfingers 7.12502
lthumb 11.0651 16.9437
rfemur -17.908 -0.9162 19.5702
rtibia 31.7031
rfoot -0.709979 -6.95561
rtoes -14.4087
lfemur -5.27876 3.05637 -19.178
ltibia 64.0082
lfoot -4.47457 -14.9358
ltoes -23.3016
52
root 23.8251 16.7717 -3.31678 1067.45 -75.5892 -4.04958
lowerback 39.9873 -1.53151 8.39833
upperback 19.4045 -1.56774 5.75109
thorax 2.37508 -1.63649 2.21848
lowerneck -7.2973 -6.69352 -5.13929
upperneck 3.3855 -8.60905 2.72455
head 2.73129 -4.27845 1.35035
rclavicle -5.24792e-014 -1.43125e-014
rhumerus 16.4831 9.31509 -67.6933
rradius 18.9089
rwrist -4.09091
rhand -21.387 -3.47886
rfingers 7.12502
rthumb 5.00064 -33.3999
lclavicle -5.24792e-014 -1.43125e-014
lhumerus -5.49441 -22.1009 -273.37
lradius 52.4878
lwrist -335.647
lhand -15.0342 -12.4286
lfingers 7.12502
lthumb 11.1318 17.2561
rfemur -17.9373 -1.63032 19.7056
rtibia 31.9312
rfoot -0.171993 -6.60516
rtoes -14.4068
lfemur -6.76 3.24369 -18.957
ltibia 66.0983
lfoot -2.98874 -14.0356
ltoes -23.7008
53
root 23.7733 16.7507 -3.33184 1067.74 -75.4467 -4.3102
lowerback 41.2281 -1.67681 8.90309
upperback 19.4276 -1.50522 5.80698
thorax 2.24601 -1.61674 2.08913
lowerneck -7.59971 -6.73618 -4.98287
upperneck 2.93768 -8.66299 2.67189
head 2.62576 -4.30397 1.30019
rclavicle 3.02153e-014 7.95139e-015
rhumerus 17.4922 8.48785 -67.4962
rradius 18.6905
rwrist -3.63834
rhand -21.3813 -3.45571
rfingers 7.12502
rthumb 5.00618 -33.3766
lclavicle 3.02153e-014 7.95139e-015
lhumerus -5.36794 -22.1594 -273.383
lradius 52.4028
lwrist -335.784
lhand -14.9261 -12.1672
lfingers 7.12502
lthumb 11.236 17.5119
rfemur -18.1275 -2.33863 19.8116
rtibia 32.2592
rfoot 0.307768 -6.16231
rtoes -14.4301
lfemur -8.20069 3.47056 -18.8037
ltibia 67.8443
lfoot -1.78768 -12.9601
ltoes -23.5767
54
root 23.7224 16.732 -3.34652 1067.9 -75.3325 -4.42783
lowerback 42.3521 -1.77884 9.34294
upperback 19.5459 -1.42067 5.89669
thorax 2.10192 -1.58425 1.97779
lowerneck -7.83882 -6.79878 -4.85806
upperneck 2.50008 -8.74682 2.64899
head 2.51685 -4.34502 1.2655
rclavicle -3.97569e-014 2.38542e-014
rhumerus 18.447 7.59172 -67.3192
rradius 18.4738
rwrist -3.13004
rhand -21.3287 -3.55432
rfingers 7.12502
rthumb 5.05694 -33.474
lclavicle -3.97569e-014 2.38542e-014
lhumerus -5.26691 -22.2978 -273.358
lradius 52.24
lwrist -335.823
lhand -14.8446 -12.0383
lfingers 7.12502
lthumb 11.3146 17.6365
rfemur -18.3719 -3.01516 19.8829
rtibia 32.6773
rfoot 0.674103 -5.72599
rtoes -13.8969
lfemur -9.55439 3.67212 -18.7243
ltibia 69.2727
lfoot -1.11169 -11.84
ltoes -23.4102
55
root 23.6737 16.7137 -3.36174 1068.19 -75.2139 -4.59003
lowerback 43.3964 -1.89127 9.80086
upperback 19.6623 -1.33872 5.9736
thorax 1.99244 -1.54805 1.84349
lowerneck -8.07323 -6.8592 -4.65588
upperneck 2.03436 -8.83497 2.56903
head 2.39022 -4.39013 1.20007
rclavicle 7.95139e-015 -4.77083e-015
rhumerus 19.4724 6.63508 -67.1751
rradius 18.1589
rwrist -2.59538
rhand -21.3549 -3.55964
rfingers 7.12502
rthumb 5.0317 -33.4799
lclavicle 7.95139e-015 -4.77083e-015
lhumerus -5.16554 -22.4311 -273.329
lradius 52.0114
lwrist -335.943
lhand -14.8559 -12.0056
lfingers 7.12502
lthumb 11.3037 17.6698
rfemur -18.7178 -3.66195 19.9796
rtibia 33.1733
rfoot 0.904846 -5.33248
rtoes -13.3619
lfemur -10.9625 3.85038 -18.6527
ltibia 70.4532
lfoot -0.932072 -10.8804
ltoes -23.4496
56
root 23.6257 16.6984 -3.37573 1068.26 -75.1419 -4.45079
lowerback 44.3706 -1.96852 10.2022
upperback 19.7826 -1.23363 6.01726
thorax 1.9147 -1.49873 1.6923
lowerneck -8.23375 -6.90877 -4.46158
upperneck 1.50663 -8.91437 2.5316
head 2.23226 -4.4312 1.15412
rclavicle -1.90833e-014 7.95139e-015
rhumerus 20.5075 5.65752 -67.0627
rradius 17.8687
rwrist -2.1593
rhand -21.3879 -3.51598
rfingers 7.12502
rthumb 4.99977 -33.437
lclavicle -1.90833e-014 7.95139e-015
lhumerus -5.06671 -22.6841 -273.351
lradius 51.7504
lwrist -335.893
lhand -14.9853 -12.2059
lfingers 7.12502
lthumb 11.1789 17.4763
rfemur -19.1475 -4.30212 20.0145
rtibia 33.7067
rfoot 1.052 -4.85959
rtoes -12.7081
lfemur -12.3735 4.05066 -18.6958
ltibia 71.3941
lfoot -1.31127 -10.1445
ltoes -24.0163
